<?xml version="1.0" encoding="utf-8"?>
<!-- Generator: Adobe Illustrator 25.1.0, SVG Export Plug-In . SVG Version: 6.00 Build 0)  -->
<svg version="1.1" id="Layer_1" xmlns="http://www.w3.org/2000/svg" xmlns:xlink="http://www.w3.org/1999/xlink" x="0px" y="0px"
	 viewBox="0 0 300 108" style="enable-background:new 0 0 300 108;" xml:space="preserve">
<path style="fill:#FFFFFF;" d="M165.8,38.4v0.2h-3.7l-1.2-3.6h-6.7l-1.2,3.6h-3.5v-0.2l6-16.7h4.2L165.8,38.4z M160,32.2l-2.3-7.1
	h-0.1l-2.3,7.1H160z M167.7,37.7c-0.9-0.8-1.4-1.9-1.4-3.2h3.3c0,0.5,0.2,0.9,0.6,1.2c0.4,0.3,1,0.5,1.6,0.5c0.7,0,1.2-0.1,1.6-0.3
	c0.4-0.2,0.5-0.5,0.5-0.8c0-0.6-0.5-1-1.5-1.2l-2-0.4c-2.5-0.5-3.7-1.8-3.7-3.8c0-1.1,0.5-2,1.4-2.7c0.9-0.7,2.1-1,3.7-1
	s2.8,0.4,3.7,1.2c1,0.8,1.4,1.8,1.4,3h-3.2c0-0.5-0.2-0.9-0.5-1.2c-0.4-0.3-0.9-0.4-1.5-0.4c-0.6,0-1,0.1-1.3,0.3
	c-0.3,0.2-0.5,0.5-0.5,0.8c0,0.6,0.4,1,1.3,1.1l2.3,0.4c1.1,0.2,2.1,0.6,2.7,1.2c0.7,0.6,1,1.5,1,2.6c0,1.2-0.5,2.2-1.5,2.9
	c-1,0.7-2.3,1-3.9,1C170,38.9,168.7,38.5,167.7,37.7 M179.9,37.1c-1.1-1.2-1.6-2.8-1.6-4.7c0-1.9,0.5-3.5,1.6-4.7
	c1.1-1.2,2.6-1.8,4.5-1.8c2,0,3.5,0.6,4.5,1.8c1.1,1.2,1.6,2.8,1.6,4.7c0,1.9-0.5,3.5-1.6,4.7c-1.1,1.2-2.6,1.8-4.5,1.8
	C182.5,38.9,180.9,38.3,179.9,37.1z M187.2,32.4c0-2.4-1-3.7-2.8-3.7c-1.9,0-2.8,1.2-2.8,3.7c0,2.4,1,3.6,2.8,3.6
	C186.3,36,187.2,34.8,187.2,32.4z M193.4,37.1c-1.1-1.2-1.6-2.8-1.6-4.7c0-2,0.5-3.6,1.6-4.7c1.1-1.2,2.6-1.8,4.5-1.8
	c1.8,0,3.1,0.5,4.1,1.4c1,0.9,1.5,2.2,1.6,3.6h-3.3c-0.1-0.7-0.3-1.2-0.7-1.6c-0.4-0.4-1-0.6-1.6-0.6c-1.9,0-2.8,1.2-2.8,3.7
	c0,2.4,0.9,3.7,2.8,3.7c0.7,0,1.3-0.2,1.7-0.6c0.4-0.4,0.7-0.9,0.7-1.5h3.3c-0.1,1.5-0.6,2.7-1.6,3.6c-1,0.9-2.3,1.4-4,1.4
	C196,38.9,194.5,38.3,193.4,37.1 M205.4,24c-0.3-0.3-0.5-0.8-0.5-1.5c0-0.6,0.2-1.1,0.5-1.4c0.3-0.3,0.9-0.5,1.5-0.5
	c0.6,0,1.1,0.2,1.5,0.5c0.4,0.4,0.5,0.8,0.5,1.4c0,0.6-0.2,1.1-0.5,1.5c-0.4,0.4-0.9,0.5-1.5,0.5S205.7,24.3,205.4,24z M205.3,26.1
	h3.3v12.6h-3.3V26.1z M211.4,37.8c-0.8-0.7-1.2-1.7-1.2-2.8c0-1.1,0.4-2.2,1.3-2.9c0.9-0.7,2.1-1,3.8-1c1.1,0,2,0.1,2.8,0.4v-1.1
	c0-0.6-0.2-1-0.5-1.3c-0.4-0.3-0.9-0.5-1.6-0.5c-0.7,0-1.2,0.1-1.6,0.5c-0.4,0.3-0.6,0.7-0.6,1.2h-3.1c0-1.2,0.5-2.3,1.4-3.1
	c0.9-0.8,2.2-1.2,3.9-1.2c1.7,0,3,0.4,3.9,1.2c1,0.9,1.4,1.9,1.4,3.2v8.3h-2.9l-0.2-1.3h-0.1c-0.8,1-1.9,1.5-3.5,1.5
	C213.2,38.9,212.1,38.5,211.4,37.8 M217.4,35.7c0.5-0.5,0.7-1,0.7-1.6v-0.3c-0.7-0.3-1.6-0.4-2.5-0.4c-0.7,0-1.2,0.1-1.6,0.4
	c-0.4,0.3-0.6,0.6-0.6,1.1c0,0.5,0.2,0.8,0.5,1.1c0.3,0.3,0.8,0.4,1.5,0.4C216.2,36.3,216.9,36.1,217.4,35.7 M224.6,37.1
	c-1.1-1.2-1.6-2.8-1.6-4.7c0-2,0.5-3.6,1.6-4.7c1.1-1.2,2.6-1.8,4.5-1.8c1.8,0,3.1,0.5,4.1,1.4c1,0.9,1.5,2.2,1.6,3.6h-3.3
	c-0.1-0.7-0.3-1.2-0.7-1.6c-0.4-0.4-1-0.6-1.6-0.6c-1.9,0-2.8,1.2-2.8,3.7c0,2.4,0.9,3.7,2.8,3.7c0.7,0,1.3-0.2,1.7-0.6
	c0.4-0.4,0.7-0.9,0.7-1.5h3.3c-0.1,1.5-0.6,2.7-1.6,3.6c-1,0.9-2.3,1.4-4,1.4C227.2,38.9,225.7,38.3,224.6,37.1 M236.7,24
	c-0.3-0.3-0.5-0.8-0.5-1.5c0-0.6,0.2-1.1,0.5-1.4c0.3-0.3,0.9-0.5,1.5-0.5c0.7,0,1.1,0.2,1.5,0.5c0.4,0.4,0.5,0.8,0.5,1.4
	c0,0.6-0.2,1.1-0.5,1.5c-0.4,0.4-0.9,0.5-1.5,0.5C237.5,24.5,237,24.3,236.7,24z M236.5,26.1h3.3v12.6h-3.3V26.1z M243,37.1
	c-1.1-1.2-1.6-2.8-1.6-4.7s0.5-3.5,1.6-4.7c1.1-1.2,2.6-1.8,4.5-1.8c2,0,3.5,0.6,4.5,1.8c1.1,1.2,1.6,2.8,1.6,4.7s-0.5,3.5-1.6,4.7
	c-1.1,1.2-2.6,1.8-4.5,1.8C245.6,38.9,244.1,38.3,243,37.1z M250.4,32.4c0-2.4-1-3.7-2.8-3.7c-1.9,0-2.8,1.2-2.8,3.7
	c0,2.4,1,3.6,2.8,3.6C249.4,36,250.4,34.8,250.4,32.4z M246.1,24.3l1.7-3.5h3.6v0.2l-2.8,3.5h-2.4V24.3z M255.5,26.1h2.9l0.2,1.4
	h0.1c0.8-1.1,2-1.6,3.6-1.6c1.4,0,2.5,0.4,3.4,1.2c0.8,0.8,1.2,1.9,1.2,3.3v8.3h-3.3v-7.3c0-1.7-0.8-2.5-2.3-2.5
	c-0.8,0-1.4,0.3-1.9,0.8c-0.5,0.5-0.7,1.2-0.7,2.1v7h-3.3L255.5,26.1L255.5,26.1z M275.7,37.1c-1-1.2-1.4-2.8-1.4-4.7
	c0-2,0.5-3.5,1.4-4.7s2.2-1.8,3.8-1.8c1.5,0,2.7,0.5,3.5,1.6h0.1v-6.7h3.3v17.9h-2.9l-0.3-1.4H283c-0.8,1-2,1.6-3.5,1.6
	C277.9,38.9,276.7,38.3,275.7,37.1 M282.6,35c0.5-0.7,0.7-1.5,0.7-2.6c0-1.1-0.2-2-0.7-2.6c-0.5-0.7-1.2-1-2.1-1c-1,0-1.7,0.3-2.1,1
	c-0.5,0.7-0.7,1.6-0.7,2.7c0,1.1,0.2,2,0.7,2.6c0.5,0.7,1.2,1,2.1,1C281.4,36,282.1,35.7,282.6,35z M289.7,37.1
	c-1.1-1.2-1.6-2.8-1.6-4.7c0-1.9,0.5-3.5,1.6-4.7c1-1.2,2.5-1.8,4.5-1.8c1.8,0,3.3,0.6,4.3,1.8c1,1.2,1.6,2.6,1.6,4.4v1.3h-8.6
	c0,0.9,0.3,1.6,0.7,2.1c0.5,0.5,1.1,0.8,2,0.8c1.3,0,2.2-0.5,2.5-1.5h3.2c-0.2,1.2-0.8,2.2-1.8,3c-1,0.8-2.3,1.2-3.9,1.2
	C292.3,38.9,290.8,38.3,289.7,37.1 M296.7,31.1c0-0.8-0.3-1.4-0.7-1.8c-0.4-0.5-1.1-0.7-1.9-0.7c-0.9,0-1.5,0.2-2,0.7
	c-0.5,0.5-0.7,1.1-0.7,1.8H296.7L296.7,31.1z M152.2,60.3c-1.4-1.6-2.1-3.7-2.1-6.2c0-2.6,0.7-4.7,2.1-6.3c1.4-1.6,3.4-2.4,5.9-2.4
	c2.1,0,3.8,0.6,5.1,1.8c1.3,1.2,2.1,2.7,2.2,4.6h-3.4c-0.1-1-0.5-1.8-1.1-2.4c-0.7-0.6-1.6-0.9-2.8-0.9c-1.5,0-2.7,0.5-3.5,1.5
	c-0.8,1-1.2,2.4-1.2,4.2c0,1.8,0.4,3.2,1.2,4.1c0.8,1,1.9,1.5,3.5,1.5c1.1,0,2-0.3,2.7-0.9c0.7-0.6,1.1-1.4,1.2-2.3h3.4
	c-0.2,1.8-1,3.3-2.2,4.5c-1.3,1.2-3,1.8-5.1,1.8C155.6,62.7,153.6,61.9,152.2,60.3 M168.4,60.9c-1.1-1.2-1.6-2.8-1.6-4.7
	c0-1.9,0.5-3.5,1.6-4.7c1.1-1.2,2.6-1.8,4.5-1.8c2,0,3.5,0.6,4.5,1.8c1.1,1.2,1.6,2.8,1.6,4.7c0,1.9-0.5,3.5-1.6,4.7
	c-1.1,1.2-2.6,1.8-4.5,1.8C171,62.7,169.5,62.1,168.4,60.9z M175.8,56.2c0-2.4-1-3.7-2.8-3.7c-1.9,0-2.8,1.2-2.8,3.7
	c0,2.4,1,3.6,2.8,3.6C174.8,59.8,175.8,58.6,175.8,56.2z M181.9,60.9c-1.1-1.2-1.6-2.8-1.6-4.7c0-1.9,0.5-3.5,1.6-4.7
	c1.1-1.2,2.6-1.8,4.5-1.8c2,0,3.5,0.6,4.5,1.8c1.1,1.2,1.6,2.8,1.6,4.7c0,1.9-0.5,3.5-1.6,4.7c-1.1,1.2-2.6,1.8-4.5,1.8
	C184.4,62.7,182.9,62.1,181.9,60.9z M189.2,56.2c0-2.4-1-3.7-2.8-3.7c-1.9,0-2.8,1.2-2.8,3.7c0,2.4,1,3.6,2.8,3.6
	C188.3,59.8,189.2,58.6,189.2,56.2z M194.3,49.9h2.9l0.3,1.4h0.1c0.8-1,2-1.6,3.5-1.6c1.5,0,2.8,0.6,3.8,1.8c1,1.2,1.4,2.8,1.4,4.7
	c0,2-0.5,3.5-1.4,4.7c-0.9,1.2-2.2,1.8-3.8,1.8c-1.6,0-2.7-0.5-3.5-1.6h-0.1V68h-3.3V49.9L194.3,49.9z M202.4,58.8
	c0.4-0.7,0.7-1.5,0.7-2.6c0-1.1-0.2-2-0.7-2.7c-0.5-0.7-1.2-1-2.1-1c-1,0-1.6,0.3-2.1,1c-0.5,0.7-0.7,1.6-0.7,2.7
	c0,1.1,0.2,2,0.7,2.6c0.4,0.7,1.1,1,2.1,1C201.2,59.8,201.9,59.5,202.4,58.8z M209.2,60.8c-1.1-1.2-1.6-2.8-1.6-4.7
	c0-1.9,0.5-3.5,1.6-4.7c1-1.2,2.5-1.8,4.5-1.8c1.8,0,3.3,0.6,4.3,1.8c1,1.2,1.6,2.6,1.6,4.4v1.3h-8.6c0,0.9,0.3,1.6,0.7,2.1
	c0.5,0.5,1.1,0.8,2,0.8c1.3,0,2.2-0.5,2.5-1.5h3.2c-0.2,1.2-0.8,2.2-1.8,3c-1,0.8-2.3,1.2-3.9,1.2C211.7,62.7,210.3,62.1,209.2,60.8
	 M216.1,54.9c0-0.8-0.3-1.4-0.7-1.8c-0.4-0.5-1.1-0.7-1.9-0.7c-0.9,0-1.5,0.2-2,0.7c-0.5,0.5-0.7,1.1-0.7,1.8H216.1L216.1,54.9z
	 M221.3,49.9h2.7l0.2,1.9h0.1c0.7-1.4,1.7-2.1,3.3-2.1h0.9v3h-1.1c-1,0-1.7,0.3-2.3,0.9c-0.5,0.6-0.8,1.5-0.8,2.7v6.2h-3.1
	L221.3,49.9L221.3,49.9z M230.6,61.6c-0.8-0.7-1.2-1.7-1.2-2.8c0-1.1,0.4-2.2,1.3-2.9c0.9-0.7,2.1-1,3.8-1c1.1,0,2,0.1,2.8,0.4v-1.1
	c0-0.6-0.2-1-0.5-1.3c-0.4-0.3-0.9-0.5-1.6-0.5c-0.7,0-1.2,0.1-1.6,0.5c-0.4,0.3-0.6,0.7-0.6,1.2h-3.1c0-1.2,0.5-2.3,1.4-3.1
	c0.9-0.8,2.2-1.2,3.9-1.2s3,0.4,3.9,1.2c1,0.9,1.4,1.9,1.4,3.2v8.3h-2.9l-0.2-1.3h-0.1c-0.8,1-1.9,1.5-3.5,1.5
	C232.4,62.7,231.3,62.3,230.6,61.6 M236.6,59.4c0.5-0.5,0.7-1,0.7-1.6v-0.3c-0.7-0.3-1.6-0.4-2.5-0.4c-0.7,0-1.2,0.1-1.6,0.4
	c-0.4,0.3-0.6,0.6-0.6,1.1c0,0.5,0.2,0.8,0.5,1.1c0.3,0.3,0.8,0.4,1.5,0.4C235.4,60.1,236.1,59.9,236.6,59.4 M244.8,61.6
	c-0.7-0.7-1-1.6-1-2.8v-6.2h-2.1v-2.8h2.2v-2.6l2.9-0.7h0.2v3.3h3v2.8h-3v5.5c0,0.6,0.1,1,0.4,1.3c0.3,0.3,0.7,0.4,1.2,0.4
	c0.4,0,0.8-0.1,1.2-0.2h0.2v2.7c-0.7,0.2-1.5,0.3-2.4,0.3C246.5,62.7,245.5,62.4,244.8,61.6 M252.2,47.8c-0.3-0.3-0.5-0.8-0.5-1.5
	c0-0.6,0.2-1.1,0.5-1.4c0.3-0.3,0.9-0.5,1.5-0.5c0.6,0,1.1,0.2,1.5,0.5c0.4,0.4,0.5,0.8,0.5,1.4c0,0.6-0.2,1.1-0.5,1.5
	c-0.4,0.4-0.9,0.5-1.5,0.5C253,48.3,252.5,48.1,252.2,47.8z M252,49.9h3.3v12.6H252V49.9z M256.4,50.1v-0.3h3.4l2.9,9.4h0.1l2.9-9.4
	h3.3v0.3l-4.2,12.3h-4L256.4,50.1z M270.3,61.6c-0.8-0.7-1.2-1.7-1.2-2.8c0-1.1,0.4-2.2,1.3-2.9c0.9-0.7,2.1-1,3.8-1
	c1.1,0,2,0.1,2.8,0.4v-1.1c0-0.6-0.2-1-0.5-1.3c-0.4-0.3-0.9-0.5-1.6-0.5c-0.7,0-1.2,0.1-1.6,0.5c-0.4,0.3-0.6,0.7-0.6,1.2h-3.1
	c0-1.2,0.5-2.3,1.4-3.1c0.9-0.8,2.2-1.2,3.9-1.2c1.7,0,3,0.4,3.9,1.2c1,0.9,1.4,1.9,1.4,3.2v8.3h-2.9l-0.2-1.3h-0.1
	c-0.8,1-1.9,1.5-3.5,1.5C272.2,62.7,271.1,62.3,270.3,61.6 M276.3,59.4c0.5-0.5,0.7-1,0.7-1.6v-0.3c-0.7-0.3-1.6-0.4-2.5-0.4
	c-0.7,0-1.2,0.1-1.6,0.4c-0.4,0.3-0.6,0.6-0.6,1.1c0,0.5,0.2,0.8,0.5,1.1c0.3,0.3,0.8,0.4,1.5,0.4C275.2,60.1,275.8,59.9,276.3,59.4
	 M283.3,61.5c-0.9-0.8-1.4-1.9-1.4-3.2h3.3c0,0.5,0.2,0.9,0.6,1.2c0.4,0.3,1,0.5,1.6,0.5c0.7,0,1.2-0.1,1.6-0.3
	c0.4-0.2,0.5-0.5,0.5-0.8c0-0.6-0.5-1-1.5-1.2l-2-0.4c-2.5-0.5-3.7-1.8-3.7-3.8c0-1.1,0.5-2,1.4-2.7c0.9-0.7,2.1-1,3.7-1
	c1.6,0,2.8,0.4,3.7,1.2c1,0.8,1.4,1.8,1.4,3h-3.2c0-0.5-0.2-0.9-0.5-1.2c-0.4-0.3-0.9-0.4-1.5-0.4c-0.6,0-1,0.1-1.3,0.3
	c-0.3,0.2-0.5,0.5-0.5,0.8c0,0.6,0.4,1,1.3,1.1l2.3,0.4c1.1,0.2,2.1,0.6,2.7,1.2c0.7,0.6,1,1.5,1,2.6c0,1.2-0.5,2.2-1.5,2.9
	c-1,0.7-2.3,1-3.9,1C285.6,62.7,284.3,62.3,283.3,61.5 M165.8,86v0.2h-3.7l-1.2-3.6h-6.7l-1.2,3.6h-3.5V86l6-16.7h4.2L165.8,86z
	 M160,79.8l-2.3-7.1h-0.1l-2.3,7.1H160z M167.1,73.6h2.7l0.2,1.9h0.1c0.7-1.4,1.8-2.1,3.3-2.1h0.9v3h-1.1c-1,0-1.7,0.3-2.3,0.9
	c-0.5,0.6-0.8,1.5-0.8,2.7v6.2h-3.1L167.1,73.6L167.1,73.6z M177.3,90.8c-1-0.8-1.6-1.9-1.6-3.3h3.2c0,0.5,0.3,0.9,0.7,1.2
	c0.4,0.3,1,0.5,1.7,0.5c0.9,0,1.6-0.2,2.1-0.7c0.5-0.4,0.7-1,0.7-1.7v-1.9H184c-0.8,1-2,1.6-3.5,1.6c-1.6,0-2.9-0.6-3.8-1.8
	c-0.9-1.2-1.4-2.8-1.4-4.7c0-1.9,0.5-3.5,1.4-4.7c0.9-1.2,2.2-1.8,3.8-1.8c1.5,0,2.7,0.5,3.5,1.6h0.1l0.3-1.4h2.9v13.2
	c0,1.5-0.6,2.8-1.7,3.7c-1.1,0.9-2.6,1.4-4.4,1.4C179.6,92,178.3,91.6,177.3,90.8 M183.5,82.6c0.4-0.7,0.7-1.5,0.7-2.6
	c0-1.1-0.2-2-0.7-2.7c-0.5-0.7-1.2-1-2.1-1c-1,0-1.6,0.3-2.1,1c-0.5,0.7-0.7,1.6-0.7,2.7c0,1.1,0.2,2,0.7,2.6c0.4,0.7,1.1,1,2.1,1
	C182.4,83.6,183.1,83.3,183.5,82.6z M190.6,84.6c-1.1-1.2-1.6-2.8-1.6-4.7s0.5-3.5,1.6-4.7c1-1.2,2.5-1.8,4.5-1.8
	c1.8,0,3.3,0.6,4.3,1.8c1,1.2,1.6,2.6,1.6,4.4v1.3h-8.6c0,0.9,0.3,1.6,0.7,2.1c0.5,0.5,1.1,0.8,2,0.8c1.3,0,2.2-0.5,2.5-1.5h3.2
	c-0.2,1.2-0.8,2.2-1.8,3c-1,0.8-2.3,1.2-3.9,1.2C193.2,86.5,191.7,85.9,190.6,84.6 M197.6,78.7c0-0.8-0.3-1.4-0.7-1.8
	c-0.4-0.5-1.1-0.7-1.9-0.7c-0.9,0-1.5,0.2-2,0.7c-0.5,0.5-0.7,1.1-0.7,1.8H197.6L197.6,78.7z M202.8,73.6h2.9l0.2,1.4h0.1
	c0.8-1.1,2-1.6,3.6-1.6c1.4,0,2.5,0.4,3.4,1.2c0.8,0.8,1.2,1.9,1.2,3.3v8.3H211v-7.3c0-1.7-0.8-2.5-2.3-2.5c-0.8,0-1.4,0.3-1.9,0.8
	c-0.5,0.5-0.7,1.2-0.7,2.1v7h-3.3L202.8,73.6L202.8,73.6z M218.5,85.4c-0.7-0.7-1-1.6-1-2.8v-6.2h-2.1v-2.8h2.2V71l2.9-0.7h0.2v3.3
	h3v2.8h-3V82c0,0.6,0.1,1,0.4,1.3c0.3,0.3,0.7,0.4,1.2,0.4c0.4,0,0.8-0.1,1.2-0.2h0.2v2.7c-0.7,0.2-1.5,0.3-2.4,0.3
	C220.2,86.5,219.2,86.1,218.5,85.4 M225.9,71.5c-0.3-0.3-0.5-0.8-0.5-1.5c0-0.6,0.2-1.1,0.5-1.4c0.3-0.3,0.9-0.5,1.5-0.5
	c0.7,0,1.1,0.2,1.5,0.5c0.4,0.4,0.5,0.8,0.5,1.4c0,0.6-0.2,1.1-0.5,1.5c-0.4,0.4-0.9,0.5-1.5,0.5C226.7,72.1,226.2,71.9,225.9,71.5z
	 M225.7,73.6h3.3v12.6h-3.3V73.6z M231.3,73.6h2.9l0.2,1.4h0.1c0.8-1.1,2-1.6,3.6-1.6c1.4,0,2.5,0.4,3.4,1.2
	c0.8,0.8,1.2,1.9,1.2,3.3v8.3h-3.3v-7.3c0-1.7-0.8-2.5-2.3-2.5c-0.8,0-1.4,0.3-1.9,0.8c-0.5,0.5-0.7,1.2-0.7,2.1v7h-3.3L231.3,73.6
	L231.3,73.6z M245.6,85.4c-0.8-0.7-1.2-1.7-1.2-2.8s0.4-2.2,1.3-2.9c0.9-0.7,2.1-1,3.8-1c1.1,0,2,0.1,2.8,0.4v-1.1
	c0-0.6-0.2-1-0.5-1.3c-0.4-0.3-0.9-0.5-1.6-0.5c-0.7,0-1.2,0.1-1.6,0.5c-0.4,0.3-0.6,0.7-0.6,1.2H245c0-1.2,0.5-2.3,1.4-3.1
	c0.9-0.8,2.2-1.2,3.9-1.2c1.7,0,3,0.4,3.9,1.2c1,0.9,1.4,1.9,1.4,3.2v8.3h-2.9l-0.2-1.3h-0.1c-0.8,1-1.9,1.5-3.5,1.5
	C247.4,86.5,246.4,86.1,245.6,85.4 M251.6,83.2c0.5-0.5,0.7-1,0.7-1.6v-0.3c-0.7-0.3-1.6-0.4-2.5-0.4c-0.7,0-1.2,0.1-1.6,0.4
	c-0.4,0.3-0.6,0.6-0.6,1.1c0,0.5,0.2,0.8,0.5,1.1c0.3,0.3,0.8,0.4,1.5,0.4C250.4,83.9,251.1,83.7,251.6,83.2z M258.6,85.3
	c-0.9-0.8-1.4-1.9-1.4-3.2h3.3c0,0.5,0.2,0.9,0.6,1.2c0.4,0.3,1,0.5,1.6,0.5c0.7,0,1.2-0.1,1.6-0.3c0.4-0.2,0.5-0.5,0.5-0.8
	c0-0.6-0.5-1-1.5-1.2l-2-0.4c-2.5-0.5-3.7-1.8-3.7-3.8c0-1.1,0.5-2,1.4-2.7c0.9-0.7,2.1-1,3.7-1c1.6,0,2.8,0.4,3.7,1.2
	c1,0.8,1.4,1.8,1.4,3h-3.2c0-0.5-0.2-0.9-0.5-1.2c-0.4-0.3-0.9-0.4-1.5-0.4c-0.6,0-1,0.1-1.3,0.3c-0.3,0.2-0.5,0.5-0.5,0.8
	c0,0.6,0.4,1,1.3,1.1l2.3,0.4c1.1,0.2,2.1,0.6,2.7,1.2c0.7,0.6,1,1.5,1,2.6c0,1.2-0.5,2.2-1.5,2.9c-1,0.7-2.3,1-3.9,1
	C260.9,86.5,259.5,86.1,258.6,85.3 M30.5,70.5h7.3c0.3,0,0.6-0.3,0.4-0.7L23,35.6c-0.1-0.2-0.3-0.3-0.4-0.3h-6.9
	c-0.2,0-0.4,0.1-0.4,0.3L0,69.9c-0.1,0.3,0.1,0.7,0.4,0.7h7.3c0.2,0,0.4-0.1,0.4-0.3l2.9-6.5h16l2.9,6.5
	C30.1,70.4,30.3,70.5,30.5,70.5 M14.3,56.8l4.9-10.8L24,56.8H14.3z M122.8,70.5h7.3c0.3,0,0.6-0.3,0.4-0.7l-15.1-34.3
	c-0.1-0.2-0.3-0.3-0.4-0.3h-6.9c-0.2,0-0.4,0.1-0.4,0.3L92.4,69.9c-0.1,0.3,0.1,0.7,0.4,0.7h7.3c0.2,0,0.4-0.1,0.4-0.3l2.9-6.5h16
	l2.9,6.5C122.4,70.4,122.6,70.5,122.8,70.5z M106.5,56.8l4.9-10.8l4.9,10.8H106.5z M67,14.7c12.9,0,24.3,6.2,31.5,15.7
	c0.2,0.2,0.5,0.3,0.7,0.1l10.6-7.8c0.2-0.2,0.3-0.5,0.1-0.7C100.2,9,84.6,0.6,67,0.6S33.9,9,24.1,22c-0.2,0.2-0.1,0.5,0.1,0.7
	l10.6,7.8c0.2,0.2,0.5,0.1,0.7-0.1C42.7,20.8,54.1,14.7,67,14.7 M67,93.3c-12.9,0-24.3-6.2-31.5-15.7c-0.2-0.2-0.5-0.3-0.7-0.1
	l-10.6,7.8c-0.2,0.2-0.3,0.5-0.1,0.7c9.8,13,25.4,21.4,42.9,21.4S100.2,99,110,86c0.2-0.2,0.1-0.5-0.1-0.7l-10.6-7.8
	c-0.2-0.2-0.5-0.1-0.7,0.1C91.4,87.2,80,93.3,67,93.3 M67,69.4c-8.5,0-15.4-6.8-15.5-15.2c-0.1-8.5,6.8-15.6,15.4-15.6
	c5,0,9.4,2.3,12.2,5.9c0.2,0.2,0.4,0.2,0.6,0.1l7.2-5.3c0.2-0.2,0.3-0.5,0.1-0.7c-4.7-6.1-12.1-10-20.4-9.9
	c-14.1,0.2-25.3,11.7-25,25.7C42,68.2,53.2,79.2,67,79.2c8.2,0,15.5-3.9,20.1-9.9c0.2-0.2,0.1-0.5-0.1-0.7l-7.2-5.3
	c-0.2-0.2-0.5-0.1-0.7,0.1C76.4,67.1,72,69.4,67,69.4"/>
</svg>
