<?xml version="1.0" encoding="utf-8"?>
<!-- Generator: Adobe Illustrator 25.1.0, SVG Export Plug-In . SVG Version: 6.00 Build 0)  -->
<svg version="1.1" id="Layer_1" xmlns="http://www.w3.org/2000/svg" xmlns:xlink="http://www.w3.org/1999/xlink" x="0px" y="0px"
	 viewBox="0 0 78 64" style="enable-background:new 0 0 78 64;" xml:space="preserve">
<path style="fill:#FFFFFF;" d="M18.3,41.9h4.3c0.2,0,0.3-0.2,0.3-0.4l-9-20.5c0-0.1-0.2-0.2-0.3-0.2H9.4c-0.1,0-0.2,0.1-0.3,0.2
	l-9,20.5c-0.1,0.2,0.1,0.4,0.3,0.4h4.3c0.1,0,0.2-0.1,0.3-0.2l1.7-3.9h9.5l1.7,3.9C18,41.8,18.1,41.9,18.3,41.9 M8.6,33.7l2.9-6.4
	l2.9,6.4H8.6z M73.3,41.9h4.3c0.2,0,0.3-0.2,0.3-0.4l-9-20.5c0-0.1-0.2-0.2-0.3-0.2h-4.1c-0.1,0-0.2,0.1-0.3,0.2l-9,20.5
	c-0.1,0.2,0.1,0.4,0.3,0.4h4.3c0.1,0,0.2-0.1,0.3-0.2l1.7-3.9h9.5l1.7,3.9C73.1,41.8,73.2,41.9,73.3,41.9z M63.6,33.7l2.9-6.4
	l2.9,6.4H63.6z M40.1,8.4c7.7,0,14.5,3.7,18.8,9.4c0.1,0.1,0.3,0.2,0.4,0.1l6.3-4.7c0.1-0.1,0.2-0.3,0.1-0.4C59.8,5,50.5,0,40.1,0
	S20.3,5,14.5,12.8c-0.1,0.1-0.1,0.3,0.1,0.4l6.3,4.7c0.1,0.1,0.3,0.1,0.4-0.1C25.6,12.1,32.4,8.4,40.1,8.4 M40.1,55.6
	c-7.7,0-14.5-3.7-18.8-9.4C21.2,46,21,46,20.9,46.1l-6.3,4.7c-0.1,0.1-0.2,0.3-0.1,0.4C20.3,59,29.6,64,40.1,64s19.8-5,25.6-12.8
	c0.1-0.1,0.1-0.3-0.1-0.4l-6.3-4.7C59.2,46,59,46,58.9,46.2C54.6,51.9,47.8,55.6,40.1,55.6 M40.1,41.2c-5,0-9.2-4.1-9.2-9.1
	c-0.1-5.1,4.1-9.3,9.2-9.4c3,0,5.6,1.4,7.3,3.6c0.1,0.1,0.3,0.1,0.4,0.1l4.3-3.1c0.1-0.1,0.2-0.3,0.1-0.4c-2.8-3.7-7.2-6-12.2-5.9
	c-8.4,0.1-15.1,7-14.9,15.4c0.2,8.2,6.9,14.8,15.1,14.8c4.9,0,9.2-2.3,12-5.9c0.1-0.1,0.1-0.3-0.1-0.4l-4.3-3.1
	c-0.1-0.1-0.3-0.1-0.4,0.1C45.6,39.9,43,41.2,40.1,41.2"/>
</svg>
